# xmcd
# 
# Track frame offsets:
#     150
#     16297
#     32293
#     50120
#     68804
#     81912
#     94642
#     111393
#     125948
#     143592
#     161289
#     178488
#     194645
#     210762
#     229795
# 
# Disc length: 3279
# 
# Revision: 3
# Processed by: cddbd v1.5.2PL0 Copyright (c) Steve Scherf et al.
# Submitted via: fre:ac v1.0.31
# 
DISCID=cf0ccd0f
DTITLE=John Hammond - Timeless
DYEAR=2014
DGENRE=Blues
TTITLE0=No One Can Forgive Me But My Baby
TTITLE1=Heartache Blues
TTITLE2=Going Away Baby
TTITLE3=Further On Up The Road
TTITLE4=Looking For Trouble
TTITLE5=Tell Me Mama
TTITLE6=Last Night
TTITLE7=That Nasty Swing
TTITLE8=Drop Down Mama
TTITLE9=Hard Times
TTITLE10=Jockey Full Of Bourbon
TTITLE11=Tell Me
TTITLE12=Junco Partner
TTITLE13=The Sky Is Crying
TTITLE14=No Money Down
EXTD=YEAR: 2014
EXTT0=
EXTT1=
EXTT2=
EXTT3=
EXTT4=
EXTT5=
EXTT6=
EXTT7=
EXTT8=
EXTT9=
EXTT10=
EXTT11=
EXTT12=
EXTT13=
EXTT14=
PLAYORDER=
